# Blender v2.90.0 OBJ File: ''
# www.blender.org
mtllib beveled_cube.mtl
o Pillar_L_Cube.008
v -0.641604 -0.064629 -10.818367
v -0.641604 0.113035 -10.996031
v -0.463940 0.113035 -10.818367
v -0.641604 1.443706 -10.996031
v -0.641604 1.621370 -10.818367
v -0.463940 1.443706 -10.818367
v -0.641604 -0.064629 -9.576607
v -0.463940 0.113035 -9.576607
v -0.641604 0.113035 -9.398943
v -0.641604 1.621370 -9.576607
v -0.641604 1.443706 -9.398943
v -0.463940 1.443706 -9.576607
v -1.883363 -0.064629 -10.818367
v -2.061028 0.113035 -10.818367
v -1.883363 0.113035 -10.996031
v -1.883363 1.621370 -10.818367
v -1.883363 1.443706 -10.996031
v -2.061028 1.443706 -10.818367
v -1.883363 -0.064629 -9.576607
v -1.883363 0.113035 -9.398943
v -2.061028 0.113035 -9.576607
v -1.883363 1.621370 -9.576607
v -2.061028 1.443706 -9.576607
v -1.883363 1.443706 -9.398943
vt 0.885571 0.103249
vt 0.885571 0.890553
vt 0.112999 0.890553
vt 0.112999 0.103249
vt -0.279992 0.413759
vt -0.279992 0.536244
vt -0.394293 0.536244
vt -0.394293 0.413759
vt 0.889162 0.888740
vt 0.108631 0.888740
vt 0.108631 0.108004
vt 0.889162 0.108004
vt 0.660895 0.557466
vt 0.660895 0.674218
vt 0.551944 0.674218
vt 0.551944 0.557466
vt 0.116298 0.892246
vt 0.116298 0.104942
vt 0.888870 0.104942
vt 0.888870 0.892246
vt 0.112999 -0.001868
vt 0.112999 -0.001868
vt 0.002464 0.103249
vt 0.112999 0.995670
vt 0.002464 0.890553
vt 0.551944 0.541878
vt 0.551944 0.541878
vt 0.536356 0.557466
vt 0.116298 -0.000175
vt 0.116298 -0.000175
vt 0.005763 0.104942
vt -0.394293 0.397406
vt -0.394293 0.397406
vt -0.410647 0.413759
vt 0.885571 0.995670
vt 0.885571 0.995670
vt 0.996107 0.890553
vt 0.888870 0.997363
vt 0.888870 0.997363
vt 0.999406 0.892246
vt -0.279992 0.552598
vt -0.279992 0.552598
vt -0.263638 0.536244
vt 0.660895 0.541878
vt 0.676483 0.557466
vt 0.676483 0.674218
vt 0.660895 0.689806
vt 0.551944 0.689806
vt 0.536356 0.674218
vt 0.116298 0.997363
vt 0.888870 -0.000175
vt 0.999406 0.104942
vt -0.279992 0.397406
vt -0.394293 0.552598
vt -0.410647 0.536244
vt 0.885571 -0.001868
vt 0.114689 0.885296
vt 0.894220 0.885297
vt 0.894220 0.112997
vt 0.114689 0.112997
vn 0.0000 0.0000 -1.0000
vn -1.0000 0.0000 0.0000
vn 0.0000 1.0000 0.0000
vn 1.0000 0.0000 0.0000
vn 0.0000 0.0000 1.0000
vn 0.5774 -0.5774 -0.5774
vn 0.5773 0.5773 -0.5774
vn 0.5774 -0.5774 0.5774
vn 0.5773 0.5773 0.5774
vn -0.5774 -0.5774 -0.5774
vn -0.5773 0.5773 -0.5774
vn -0.5774 -0.5774 0.5774
vn -0.5773 0.5773 0.5774
vn 0.7071 -0.7071 0.0000
vn 0.7071 0.0000 -0.7071
vn 0.7071 0.7071 0.0000
vn 0.7071 0.0000 0.7071
vn 0.0000 -0.7071 0.7071
vn 0.0000 0.7071 0.7071
vn -0.7071 0.0000 0.7071
vn -0.7071 -0.7071 0.0000
vn -0.7071 0.7071 0.0000
vn -0.7071 0.0000 -0.7071
vn 0.0000 -0.7071 -0.7071
vn 0.0000 0.7071 -0.7071
vn 0.0000 -1.0000 0.0000
usemtl Material.002
s off
f 15/1/1 17/2/1 4/3/1 2/4/1
f 21/5/2 23/6/2 18/7/2 14/8/2
f 22/9/3 10/10/3 5/11/3 16/12/3
f 3/13/4 6/14/4 12/15/4 8/16/4
f 9/17/5 11/18/5 24/19/5 20/20/5
f 1/21/6 2/22/6 3/23/6
f 4/3/7 5/24/7 6/25/7
f 7/26/8 8/27/8 9/28/8
f 10/29/9 11/30/9 12/31/9
f 13/32/10 14/33/10 15/34/10
f 16/35/11 17/36/11 18/37/11
f 19/38/12 20/39/12 21/40/12
f 22/41/13 23/42/13 24/43/13
f 7/26/14 1/44/14 3/13/14 8/16/14
f 2/45/15 4/46/15 6/14/15 3/13/15
f 5/47/16 10/48/16 12/15/16 6/14/16
f 11/49/17 9/28/17 8/16/17 12/15/17
f 19/38/18 7/50/18 9/17/18 20/20/18
f 10/29/19 22/51/19 24/19/19 11/18/19
f 23/52/20 21/40/20 20/20/20 24/19/20
f 13/32/21 19/53/21 21/5/21 14/8/21
f 22/41/22 16/54/22 18/7/22 23/6/22
f 17/55/23 15/34/23 14/8/23 18/7/23
f 1/21/24 13/56/24 15/1/24 2/4/24
f 16/35/25 5/24/25 4/3/25 17/2/25
f 7/57/26 19/58/26 13/59/26 1/60/26
