# Blender v2.90.0 OBJ File: ''
# www.blender.org
mtllib gentle_slope.mtl
o gentle_Slope_Cube.004
v -4.470978 -0.059199 7.670238
v -4.470978 1.431112 7.670238
v -7.560597 -0.059199 7.670239
v -5.825696 1.431112 7.670238
v -4.470978 1.198251 7.670238
v -5.945796 1.198251 7.670238
v -6.097264 0.965390 7.670238
v -6.342444 0.732529 7.670239
v -6.613190 0.499668 7.670239
v -7.058603 0.205903 7.670239
v -4.470978 0.965390 7.670238
v -4.470978 0.732529 7.670238
v -4.470978 0.499668 7.670238
v -4.470978 0.205903 7.670238
v -4.470978 -0.059199 5.434772
v -4.470978 1.431112 5.434772
v -7.560597 -0.059199 5.434772
v -5.825696 1.431112 5.434772
v -4.470978 1.198251 5.434772
v -5.945796 1.198251 5.434772
v -6.097264 0.965390 5.434772
v -6.342444 0.732529 5.434772
v -6.613190 0.499668 5.434772
v -7.058603 0.205903 5.434772
v -4.470978 0.965390 5.434772
v -4.470978 0.732529 5.434772
v -4.470978 0.499668 5.434772
v -4.470978 0.205903 5.434772
vt 0.799634 0.380192
vt 0.785307 0.380192
vt 0.785307 0.296840
vt 0.799634 0.289450
vt 0.751532 0.614524
vt 0.665307 0.614524
vt 0.665307 0.676911
vt 0.751532 0.676911
vt 0.877002 0.380192
vt 0.860691 0.380192
vt 0.860690 0.220982
vt 0.877002 0.190096
vt 0.842616 0.380192
vt 0.842616 0.248387
vt 0.828289 0.380192
vt 0.828289 0.265046
vt 0.813961 0.380192
vt 0.813961 0.280131
vt 1.101771 0.470782
vt 1.307541 0.470782
vt 1.307541 0.492216
vt 1.101771 0.492216
vt 1.101771 0.449348
vt 1.307541 0.449348
vt 1.101771 0.422307
vt 1.307541 0.422307
vt 1.101771 0.397905
vt 1.307541 0.397905
vt 0.665307 0.676911
vt 0.665307 0.614524
vt 0.703114 0.614524
vt 0.703114 0.676911
vt 1.101771 0.513651
vt 1.307541 0.513651
vt 1.307541 0.535085
vt 1.101771 0.535085
vt 1.307541 0.422307
vt 1.307541 0.397905
vt 1.101771 0.397905
vt 1.101771 0.422307
vt 0.799634 0.000000
vt 0.799634 0.090742
vt 0.785307 0.083352
vt 0.785307 0.000000
vt 1.101771 0.492216
vt 1.307541 0.492216
vt 1.307541 0.470782
vt 1.101771 0.470782
vt 0.877002 0.000000
vt 0.877002 0.190096
vt 0.860691 0.159210
vt 0.860690 0.000000
vt 0.842616 0.131805
vt 0.842616 0.000000
vt 0.828289 0.115146
vt 0.828289 0.000000
vt 0.813961 0.100061
vt 0.813961 0.000000
vt 1.307541 0.535085
vt 1.307541 0.513651
vt 1.101771 0.513651
vt 1.101771 0.535085
vt 1.101771 0.449348
vt 1.307541 0.449348
vn 0.0000 0.0000 1.0000
vn 0.0000 -1.0000 0.0000
vn -0.6887 0.7251 0.0000
vn -0.6521 0.7582 0.0000
vn -0.5506 0.8348 0.0000
vn -0.4670 0.8843 0.0000
vn 0.0000 1.0000 0.0000
vn -0.8888 0.4584 0.0000
vn 1.0000 0.0000 0.0000
vn 0.0000 0.0000 -1.0000
vn -0.8383 0.5453 0.0000
usemtl Material.002
s off
f 5/1/1 2/2/1 4/3/1 6/4/1
f 17/5/2 15/6/2 1/7/2 3/8/2
f 1/9/1 14/10/1 10/11/1 3/12/1
f 14/10/1 13/13/1 9/14/1 10/11/1
f 13/13/1 12/15/1 8/16/1 9/14/1
f 12/15/1 11/17/1 7/18/1 8/16/1
f 11/17/1 5/1/1 6/4/1 7/18/1
f 22/19/3 8/20/3 7/21/3 21/22/3
f 23/23/4 9/24/4 8/20/4 22/19/4
f 24/25/5 10/26/5 9/24/5 23/23/5
f 17/27/6 3/28/6 10/26/6 24/25/6
f 2/29/7 16/30/7 18/31/7 4/32/7
f 20/33/8 6/34/8 4/35/8 18/36/8
f 14/37/9 1/38/9 15/39/9 28/40/9
f 19/41/10 20/42/10 18/43/10 16/44/10
f 25/45/9 11/46/9 12/47/9 26/48/9
f 15/49/10 17/50/10 24/51/10 28/52/10
f 28/52/10 24/51/10 23/53/10 27/54/10
f 27/54/10 23/53/10 22/55/10 26/56/10
f 26/56/10 22/55/10 21/57/10 25/58/10
f 25/58/10 21/57/10 20/42/10 19/41/10
f 2/59/9 5/60/9 19/61/9 16/62/9
f 25/45/9 19/61/9 5/60/9 11/46/9
f 27/63/9 26/48/9 12/47/9 13/64/9
f 27/63/9 13/64/9 14/37/9 28/40/9
f 21/22/11 7/21/11 6/34/11 20/33/11
