# Blender v2.90.0 OBJ File: ''
# www.blender.org
mtllib jump_test.mtl
o Jump_platforms_Cube.003
v 10.201408 -0.110967 -3.673440
v 10.201408 3.449887 -3.673440
v 10.201408 -0.110967 -1.893013
v 10.201408 3.449887 -1.893013
v 8.420980 -0.110967 -3.673440
v 8.420980 3.449887 -3.673440
v 8.420980 -0.110967 -1.893013
v 8.420980 3.449887 -1.893013
v 10.201408 -0.110967 3.106299
v 10.201408 1.669460 3.106299
v 10.201408 -0.110967 4.886726
v 10.201408 1.669460 4.886726
v 8.420981 -0.110967 3.106299
v 8.420981 1.669460 3.106299
v 8.420981 -0.110967 4.886726
v 8.420981 1.669460 4.886726
v 10.201408 -0.110968 -0.112587
v 10.201408 2.559673 -0.112587
v 10.201408 -0.110968 1.667841
v 10.201408 2.559673 1.667841
v 8.420981 -0.110968 -0.112587
v 8.420981 2.559673 -0.112587
v 8.420981 -0.110968 1.667841
v 8.420981 2.559673 1.667841
vt 0.263381 0.393140
vt 0.263381 0.720909
vt 0.427266 0.720909
vt 0.427266 0.393140
vt 0.993634 0.000665
vt 0.993633 0.994292
vt -0.002023 0.994291
vt -0.002023 0.000665
vt 0.427266 0.393140
vt 0.427266 0.720909
vt 0.263381 0.720909
vt 0.263381 0.393140
vt 0.996734 0.000199
vt 0.996734 0.993825
vt 0.001077 0.993825
vt 0.001078 0.000199
vt -0.001505 0.999093
vt 1.006205 0.999093
vt 1.006205 0.000685
vt -0.001505 0.000685
vt 0.995353 1.000643
vt -0.001505 1.000643
vt -0.001505 -0.002416
vt 0.995353 -0.002416
vt 0.887441 0.393140
vt 0.887441 0.557024
vt 1.051325 0.557024
vt 1.051325 0.393140
vt 0.993166 -0.000963
vt 0.995627 0.994478
vt -0.000029 0.994478
vt -0.002490 -0.000963
vt 1.051325 0.393140
vt 1.051325 0.557024
vt 0.887441 0.557024
vt 0.887441 0.393140
vt 0.994961 0.000778
vt 0.997422 0.996219
vt 0.001765 0.996219
vt -0.000695 0.000778
vt -0.003055 0.999179
vt 1.004654 0.999179
vt 1.004654 0.000771
vt -0.003055 0.000771
vt 0.995353 0.999179
vt -0.001505 0.999179
vt -0.001505 -0.003880
vt 0.995353 -0.003880
vt 0.591150 0.393140
vt 0.591150 0.638967
vt 0.755034 0.638967
vt 0.755034 0.393140
vt 0.997284 -0.000000
vt 0.997284 0.995764
vt 0.001627 0.995764
vt 0.001627 -0.000000
vt 0.755034 0.393140
vt 0.755034 0.638967
vt 0.591150 0.638967
vt 0.591150 0.393140
vt 0.995034 -0.001550
vt 0.995034 0.994214
vt -0.000623 0.994214
vt -0.000623 -0.001550
vt -0.001505 1.000808
vt 1.006205 1.000808
vt 1.006205 0.002399
vt -0.001505 0.002399
vt 0.995353 0.999258
vt -0.001505 0.999258
vt -0.001505 -0.003802
vt 0.995353 -0.003802
vn 1.0000 0.0000 0.0000
vn 0.0000 0.0000 1.0000
vn -1.0000 0.0000 0.0000
vn 0.0000 0.0000 -1.0000
vn 0.0000 -1.0000 0.0000
vn 0.0000 1.0000 0.0000
usemtl Material.002
s off
f 1/1/1 2/2/1 4/3/1 3/4/1
f 3/5/2 4/6/2 8/7/2 7/8/2
f 7/9/3 8/10/3 6/11/3 5/12/3
f 5/13/4 6/14/4 2/15/4 1/16/4
f 3/17/5 7/18/5 5/19/5 1/20/5
f 8/21/6 4/22/6 2/23/6 6/24/6
f 9/25/1 10/26/1 12/27/1 11/28/1
f 11/29/2 12/30/2 16/31/2 15/32/2
f 15/33/3 16/34/3 14/35/3 13/36/3
f 13/37/4 14/38/4 10/39/4 9/40/4
f 11/41/5 15/42/5 13/43/5 9/44/5
f 16/45/6 12/46/6 10/47/6 14/48/6
f 17/49/1 18/50/1 20/51/1 19/52/1
f 19/53/2 20/54/2 24/55/2 23/56/2
f 23/57/3 24/58/3 22/59/3 21/60/3
f 21/61/4 22/62/4 18/63/4 17/64/4
f 19/65/5 23/66/5 21/67/5 17/68/5
f 24/69/6 20/70/6 18/71/6 22/72/6
