# Blender v2.90.0 OBJ File: ''
# www.blender.org
mtllib small_wall.mtl
o Cube.005_Cube.007
v 0.637351 -0.093598 -11.115869
v 0.637351 1.906402 -11.115869
v 0.637351 -0.093598 -3.442986
v 0.637351 1.906402 -3.442986
v 0.307488 -0.093598 -11.115869
v 0.307488 1.906402 -11.115869
v 0.307488 -0.093598 -3.442986
v 0.307488 1.906402 -3.442986
vt -0.421677 0.394739
vt -0.421677 0.578834
vt 0.284594 0.578834
vt 0.284594 0.394739
vt 0.564198 0.443477
vt 0.564198 0.351782
vt 0.579322 0.351782
vt 0.579322 0.443477
vt 0.284594 0.394739
vt 0.284594 0.578834
vt -0.421677 0.578834
vt -0.421677 0.394739
vt 0.140127 0.618500
vt 0.140127 0.526805
vt 0.155251 0.526805
vt 0.155251 0.618500
vt 0.522743 0.366762
vt 0.531948 0.366762
vt 0.531948 0.152626
vt 0.522743 0.152626
vt 0.531948 0.366762
vt 0.522743 0.366762
vt 0.522743 0.152626
vt 0.531948 0.152626
vn 1.0000 0.0000 0.0000
vn 0.0000 0.0000 1.0000
vn -1.0000 0.0000 0.0000
vn 0.0000 0.0000 -1.0000
vn 0.0000 -1.0000 0.0000
vn 0.0000 1.0000 0.0000
usemtl Material.002
s off
f 1/1/1 2/2/1 4/3/1 3/4/1
f 3/5/2 4/6/2 8/7/2 7/8/2
f 7/9/3 8/10/3 6/11/3 5/12/3
f 5/13/4 6/14/4 2/15/4 1/16/4
f 3/17/5 7/18/5 5/19/5 1/20/5
f 8/21/6 4/22/6 2/23/6 6/24/6
