# Blender v2.90.0 OBJ File: ''
# www.blender.org
mtllib stair_collision.mtl
o stair_collision_Plane.009
v -0.495299 1.607357 -9.510631
v -2.009215 1.607357 -9.510631
v -0.495299 -0.232481 -4.039398
v -2.009215 -0.232481 -4.039398
v -0.495299 -0.537744 -4.039398
v -0.495299 1.302094 -9.510631
v -2.009215 1.302094 -9.510631
v -2.009215 -0.537744 -4.039398
vt 0.000000 0.000000
vt 1.000000 0.000000
vt 1.000000 0.838003
vt 0.000000 0.838003
vt 0.000000 0.000000
vt 0.000000 0.838003
vt 1.000000 0.838003
vt 1.000000 0.000000
vn 0.0000 0.9478 0.3187
vn 0.0000 -0.9478 -0.3187
vn -1.0000 0.0000 0.0000
vn 1.0000 0.0000 0.0000
vn 0.0000 0.0000 1.0000
vn 0.0000 0.0000 -1.0000
usemtl None
s off
f 1/1/1 2/2/1 4/3/1 3/4/1
f 6/5/2 5/6/2 8/7/2 7/8/2
f 2/2/3 7/8/3 8/7/3 4/3/3
f 3/4/4 5/6/4 6/5/4 1/1/4
f 4/3/5 8/7/5 5/6/5 3/4/5
f 1/1/6 6/5/6 7/8/6 2/2/6
