# Blender v2.90.0 OBJ File: ''
# www.blender.org
mtllib steep_slope.mtl
o steep_slope_Cube.006
v -0.574635 1.577582 10.037837
v -0.574635 4.859639 10.037837
v -7.584803 -0.056419 10.037838
v -6.328032 0.505006 10.037838
v -0.574635 1.577582 7.939714
v -0.574635 4.859639 7.939714
v -7.584803 -0.056419 7.939715
v -6.328032 0.505006 7.939715
v -4.195025 -0.056419 10.037837
v -3.127348 0.988996 10.037837
v -1.850991 0.988996 10.037837
v -1.850991 3.090181 10.037837
v -3.127348 2.013038 10.037837
v -4.403705 1.248742 10.037837
v -1.850991 0.988996 7.939715
v -3.127348 0.988996 7.939715
v -4.195025 -0.056419 7.939715
v -4.403705 1.248742 7.939715
v -3.127348 2.013038 7.939715
v -1.850991 3.090181 7.939715
vt 1.525473 0.398161
vt 1.525473 0.449839
vt 1.332346 0.449839
vt 1.332346 0.398161
vt 0.030979 0.172260
vt 0.026953 0.301478
vt -0.054930 0.407849
vt -0.048642 0.206011
vt 1.332346 0.548567
vt 1.332346 0.850673
vt 1.525473 0.850673
vt 1.525473 0.548567
vt 1.525473 0.494390
vt 1.332346 0.494390
vt 1.332346 0.687799
vt 1.525473 0.687799
vt 0.752208 0.684432
vt 0.657605 0.684432
vt 0.657605 0.742987
vt 0.752208 0.742987
vt 1.332346 0.518298
vt 1.525473 0.518298
vt 1.525473 0.588650
vt 1.332346 0.588650
vt 0.307233 0.151074
vt 0.187467 0.193125
vt 0.177134 0.112461
vt 0.385597 0.118955
vt 1.525473 0.398161
vt 1.332346 0.398161
vt 1.332346 0.494390
vt 1.525473 0.494390
vt 0.627808 0.742987
vt 0.627808 0.684432
vt 0.592188 0.684432
vt 0.592188 0.742987
vt 0.112861 0.352325
vt 0.182724 0.393949
vt 0.096426 0.487034
vt 0.035737 0.546105
vt 0.107510 0.237682
vt 0.109472 0.174706
vt 0.288641 0.182538
vt 0.476264 0.257211
vt 0.346071 0.289917
vt 0.225955 0.242111
vt 0.255456 0.338374
vt 0.196915 0.315075
vn -0.4079 0.9130 0.0000
vn 0.0000 0.0000 -1.0000
vn 1.0000 0.0000 0.0000
vn 0.4188 -0.9081 0.0000
vn -0.8110 0.5850 0.0000
vn 0.0000 -1.0000 0.0000
vn -0.5137 0.8579 0.0000
vn -0.6449 0.7642 0.0000
vn 0.6996 -0.7145 0.0000
vn 0.0000 -0.0000 1.0000
vn -0.3605 0.9328 0.0000
usemtl Material.002
s off
f 3/1/1 4/2/1 8/3/1 7/4/1
f 15/5/2 20/6/2 6/7/2 5/8/2
f 5/9/3 6/10/3 2/11/3 1/12/3
f 11/13/4 15/14/4 5/9/4 1/12/4
f 20/15/5 12/16/5 2/11/5 6/10/5
f 7/17/6 17/18/6 9/19/6 3/20/6
f 18/21/7 14/22/7 13/23/7 19/24/7
f 19/24/8 13/23/8 12/16/8 20/15/8
f 8/25/2 18/26/2 17/27/2 7/28/2
f 9/29/9 17/30/9 16/31/9 10/32/9
f 10/33/6 16/34/6 15/35/6 11/36/6
f 9/37/10 14/38/10 4/39/10 3/40/10
f 17/27/2 18/26/2 19/41/2 16/42/2
f 16/42/2 19/41/2 20/6/2 15/5/2
f 1/43/10 2/44/10 12/45/10 11/46/10
f 11/46/10 12/45/10 13/47/10 10/48/10
f 10/48/10 13/47/10 14/38/10 9/37/10
f 4/2/11 14/22/11 18/21/11 8/3/11
